<?xml version="1.0" encoding="UTF-8"?>
<svg xmlns="http://www.w3.org/2000/svg" xmlns:xlink="http://www.w3.org/1999/xlink" width="32px" height="32px" viewBox="0 0 32 32" version="1.1">
<g id="surface1">
<path style=" stroke:none;fill-rule:nonzero;fill:rgb(94.901961%,93.72549%,99.607843%);fill-opacity:1;" d="M 13.953125 32.0625 C 9.304688 32.0625 4.679688 32.0625 0.0625 32.0625 C 0.0625 21.398438 0.0625 10.734375 0.0625 0.0625 C 10.734375 0.0625 21.398438 0.0625 32.0625 0.0625 C 32.0625 10.734375 32.0625 21.398438 32.0625 32.0625 C 26.039062 32.0625 20.007812 32.0625 13.953125 32.0625 M 16.070312 13.632812 C 15.179688 13.640625 14.453125 13.976562 14.054688 14.789062 C 13.625 15.664062 13.578125 16.570312 14.03125 17.46875 C 14.273438 17.953125 14.664062 18.257812 15.132812 18.5 C 15.773438 18.835938 16.4375 18.804688 17.09375 18.59375 C 17.5625 18.445312 17.976562 18.195312 18.242188 17.734375 C 18.53125 17.234375 18.703125 16.695312 18.710938 16.140625 C 18.710938 15.710938 18.539062 15.289062 18.429688 14.867188 C 18.320312 14.492188 18.125 14.398438 17.726562 14.515625 C 18.15625 15.195312 18.140625 15.945312 18.0625 16.6875 C 17.976562 17.421875 17.539062 17.898438 16.78125 18.09375 C 15.546875 18.40625 14.695312 17.78125 14.367188 16.789062 C 14.023438 15.765625 14.601562 14.28125 15.96875 14.1875 C 16.6875 14.140625 17.414062 14.140625 18.132812 14.132812 C 19.203125 14.125 20.28125 14.132812 21.359375 14.132812 C 21.359375 13.882812 21.359375 13.71875 21.359375 13.578125 C 20.148438 13.578125 18.945312 13.578125 17.695312 13.5625 C 17.171875 13.578125 16.648438 13.601562 16.070312 13.632812 M 16.953125 12.5 C 16.546875 12.53125 16.148438 12.570312 15.6875 12.609375 C 15.5 12.640625 15.296875 12.648438 15.109375 12.695312 C 14.640625 12.804688 14.25 13.039062 13.882812 13.367188 C 13.203125 13.953125 12.804688 14.710938 12.695312 15.554688 C 12.539062 16.71875 12.75 17.84375 13.664062 18.710938 C 13.9375 18.96875 14.226562 19.257812 14.5625 19.414062 C 15.390625 19.8125 16.257812 19.875 17.179688 19.65625 C 18.554688 19.335938 19.46875 18.140625 19.617188 16.851562 C 19.6875 16.210938 19.710938 15.570312 19.476562 14.921875 C 19.28125 14.390625 19.289062 14.34375 18.734375 14.53125 C 19.132812 15.164062 19.203125 15.882812 19.125 16.585938 C 19.023438 17.492188 18.609375 18.25 17.835938 18.773438 C 17.234375 19.1875 16.539062 19.273438 15.828125 19.210938 C 14.882812 19.125 14.171875 18.617188 13.703125 17.835938 C 13.203125 17.015625 13.109375 16.109375 13.414062 15.171875 C 13.867188 13.773438 14.84375 13.179688 16.125 13.125 C 17.742188 13.054688 19.359375 13.070312 20.984375 13.046875 C 21.109375 13.046875 21.226562 13.046875 21.34375 13.046875 C 21.34375 12.835938 21.34375 12.671875 21.34375 12.554688 C 19.875 12.554688 18.429688 12.554688 16.953125 12.5 M 16.007812 11.515625 C 14.765625 11.5 13.710938 11.992188 12.890625 12.867188 C 11.851562 13.96875 11.476562 15.328125 11.65625 16.828125 C 11.773438 17.828125 12.195312 18.726562 12.882812 19.445312 C 13.601562 20.195312 14.492188 20.710938 15.570312 20.789062 C 16.109375 20.828125 16.664062 20.84375 17.195312 20.75 C 17.835938 20.632812 18.414062 20.304688 18.945312 19.90625 C 20.515625 18.726562 21.15625 16.335938 20.34375 14.492188 C 20.15625 14.492188 19.96875 14.492188 19.75 14.492188 C 20.164062 15.335938 20.21875 16.195312 20.039062 17.0625 C 19.851562 17.976562 19.46875 18.804688 18.71875 19.390625 C 17.820312 20.09375 16.789062 20.398438 15.648438 20.234375 C 14.40625 20.054688 13.414062 19.453125 12.789062 18.351562 C 12.125 17.195312 12.046875 15.976562 12.460938 14.710938 C 12.679688 14.054688 13.015625 13.445312 13.539062 13.015625 C 14.289062 12.414062 15.171875 12.085938 16.15625 12.078125 C 17.210938 12.078125 18.257812 12.039062 19.3125 12.03125 C 19.976562 12.023438 20.632812 12.023438 21.289062 12.023438 C 21.289062 11.789062 21.289062 11.609375 21.289062 11.46875 C 20.164062 11.46875 19.054688 11.46875 17.945312 11.46875 C 17.804688 11.46875 17.671875 11.46875 17.484375 11.4375 C 17.015625 11.460938 16.539062 11.484375 16.007812 11.515625 M 17.445312 10.398438 C 16.898438 10.429688 16.351562 10.460938 15.757812 10.492188 C 15.335938 10.5625 14.914062 10.59375 14.507812 10.703125 C 13.789062 10.890625 13.132812 11.226562 12.5625 11.71875 C 11.460938 12.671875 10.835938 13.882812 10.664062 15.328125 C 10.601562 15.84375 10.515625 16.382812 10.585938 16.890625 C 10.742188 17.890625 11.09375 18.835938 11.6875 19.679688 C 12.40625 20.679688 13.414062 21.28125 14.539062 21.671875 C 15.289062 21.921875 16.085938 21.960938 16.898438 21.851562 C 18.101562 21.6875 19.140625 21.21875 19.992188 20.375 C 20.929688 19.445312 21.5 18.320312 21.640625 16.976562 C 21.726562 16.210938 21.71875 15.460938 21.5 14.726562 C 21.398438 14.40625 21.101562 14.320312 20.84375 14.515625 C 20.9375 14.859375 21.078125 15.1875 21.117188 15.53125 C 21.335938 17.515625 20.507812 19.65625 18.476562 20.734375 C 17.851562 21.0625 17.195312 21.265625 16.5 21.304688 C 14.710938 21.414062 13.234375 20.734375 12.171875 19.328125 C 11 17.773438 10.945312 16.007812 11.507812 14.210938 C 11.75 13.445312 12.25 12.8125 12.835938 12.265625 C 13.617188 11.546875 14.570312 11.203125 15.601562 11.078125 C 16.234375 11 16.890625 11.015625 17.53125 11.007812 C 18.796875 11 20.0625 11.007812 21.34375 11.007812 C 21.328125 10.742188 21.320312 10.570312 21.3125 10.4375 C 20.039062 10.4375 18.757812 10.4375 17.445312 10.398438 Z M 17.445312 10.398438 "/>
<path style=" stroke:none;fill-rule:nonzero;fill:rgb(49.019608%,36.470588%,96.470588%);fill-opacity:1;" d="M 17.484375 10.4375 C 18.757812 10.4375 20.039062 10.4375 21.3125 10.4375 C 21.320312 10.570312 21.328125 10.742188 21.34375 11.007812 C 20.0625 11.007812 18.796875 11 17.53125 11.007812 C 16.890625 11.015625 16.234375 11 15.601562 11.078125 C 14.570312 11.203125 13.617188 11.546875 12.835938 12.265625 C 12.25 12.8125 11.75 13.445312 11.507812 14.210938 C 10.945312 16.007812 11 17.773438 12.171875 19.328125 C 13.234375 20.734375 14.710938 21.414062 16.5 21.304688 C 17.195312 21.265625 17.851562 21.0625 18.476562 20.734375 C 20.507812 19.65625 21.335938 17.515625 21.117188 15.53125 C 21.078125 15.1875 20.9375 14.859375 20.84375 14.515625 C 21.101562 14.320312 21.398438 14.40625 21.5 14.726562 C 21.71875 15.460938 21.726562 16.210938 21.640625 16.976562 C 21.5 18.320312 20.929688 19.445312 19.992188 20.375 C 19.140625 21.21875 18.101562 21.6875 16.898438 21.851562 C 16.085938 21.960938 15.289062 21.921875 14.539062 21.671875 C 13.414062 21.28125 12.40625 20.679688 11.6875 19.679688 C 11.09375 18.835938 10.742188 17.890625 10.585938 16.890625 C 10.515625 16.382812 10.601562 15.84375 10.664062 15.328125 C 10.835938 13.882812 11.460938 12.671875 12.5625 11.71875 C 13.132812 11.226562 13.789062 10.890625 14.507812 10.703125 C 14.914062 10.59375 15.335938 10.5625 15.8125 10.492188 C 16.40625 10.476562 16.945312 10.453125 17.484375 10.4375 Z M 17.484375 10.4375 "/>
<path style=" stroke:none;fill-rule:nonzero;fill:rgb(49.019608%,36.470588%,96.470588%);fill-opacity:1;" d="M 17.53125 11.46875 C 17.671875 11.46875 17.804688 11.46875 17.945312 11.46875 C 19.054688 11.46875 20.164062 11.46875 21.289062 11.46875 C 21.289062 11.609375 21.289062 11.789062 21.289062 12.023438 C 20.632812 12.023438 19.976562 12.023438 19.3125 12.03125 C 18.257812 12.039062 17.210938 12.078125 16.15625 12.078125 C 15.171875 12.085938 14.289062 12.414062 13.539062 13.015625 C 13.015625 13.445312 12.679688 14.054688 12.460938 14.710938 C 12.046875 15.976562 12.125 17.195312 12.789062 18.351562 C 13.414062 19.453125 14.40625 20.054688 15.648438 20.234375 C 16.789062 20.398438 17.820312 20.09375 18.71875 19.390625 C 19.46875 18.804688 19.851562 17.976562 20.039062 17.0625 C 20.21875 16.195312 20.164062 15.335938 19.75 14.492188 C 19.96875 14.492188 20.15625 14.492188 20.34375 14.492188 C 21.15625 16.335938 20.515625 18.726562 18.945312 19.90625 C 18.414062 20.304688 17.835938 20.632812 17.195312 20.75 C 16.664062 20.84375 16.109375 20.828125 15.570312 20.789062 C 14.492188 20.710938 13.601562 20.195312 12.882812 19.445312 C 12.195312 18.726562 11.773438 17.828125 11.65625 16.828125 C 11.476562 15.328125 11.851562 13.96875 12.890625 12.867188 C 13.710938 11.992188 14.765625 11.5 16.0625 11.515625 C 16.585938 11.5 17.0625 11.484375 17.53125 11.46875 Z M 17.53125 11.46875 "/>
<path style=" stroke:none;fill-rule:nonzero;fill:rgb(49.019608%,36.470588%,96.470588%);fill-opacity:1;" d="M 16.984375 12.554688 C 18.429688 12.554688 19.875 12.554688 21.34375 12.554688 C 21.34375 12.671875 21.34375 12.835938 21.34375 13.046875 C 21.226562 13.046875 21.109375 13.046875 20.984375 13.046875 C 19.359375 13.070312 17.742188 13.054688 16.125 13.125 C 14.84375 13.179688 13.867188 13.773438 13.414062 15.171875 C 13.109375 16.109375 13.203125 17.015625 13.703125 17.835938 C 14.171875 18.617188 14.882812 19.125 15.828125 19.210938 C 16.539062 19.273438 17.234375 19.1875 17.835938 18.773438 C 18.609375 18.25 19.023438 17.492188 19.125 16.585938 C 19.203125 15.882812 19.132812 15.164062 18.734375 14.53125 C 19.289062 14.34375 19.28125 14.390625 19.476562 14.921875 C 19.710938 15.570312 19.6875 16.210938 19.617188 16.851562 C 19.46875 18.140625 18.554688 19.335938 17.179688 19.65625 C 16.257812 19.875 15.390625 19.8125 14.5625 19.414062 C 14.226562 19.257812 13.9375 18.96875 13.664062 18.710938 C 12.75 17.84375 12.539062 16.71875 12.695312 15.554688 C 12.804688 14.710938 13.203125 13.953125 13.882812 13.367188 C 14.25 13.039062 14.640625 12.804688 15.109375 12.695312 C 15.296875 12.648438 15.5 12.640625 15.742188 12.609375 C 16.195312 12.585938 16.585938 12.570312 16.984375 12.554688 Z M 16.984375 12.554688 "/>
<path style=" stroke:none;fill-rule:nonzero;fill:rgb(49.019608%,36.470588%,96.470588%);fill-opacity:1;" d="M 17.75 13.578125 C 18.945312 13.578125 20.148438 13.578125 21.359375 13.578125 C 21.359375 13.71875 21.359375 13.882812 21.359375 14.132812 C 20.28125 14.132812 19.203125 14.125 18.132812 14.132812 C 17.414062 14.140625 16.6875 14.140625 15.96875 14.1875 C 14.601562 14.28125 14.023438 15.765625 14.367188 16.789062 C 14.695312 17.78125 15.546875 18.40625 16.78125 18.09375 C 17.539062 17.898438 17.976562 17.421875 18.0625 16.6875 C 18.140625 15.945312 18.15625 15.195312 17.726562 14.515625 C 18.125 14.398438 18.320312 14.492188 18.429688 14.867188 C 18.539062 15.289062 18.710938 15.710938 18.710938 16.140625 C 18.703125 16.695312 18.53125 17.234375 18.242188 17.734375 C 17.976562 18.195312 17.5625 18.445312 17.09375 18.59375 C 16.4375 18.804688 15.773438 18.835938 15.132812 18.5 C 14.664062 18.257812 14.273438 17.953125 14.03125 17.46875 C 13.578125 16.570312 13.625 15.664062 14.054688 14.789062 C 14.453125 13.976562 15.179688 13.640625 16.132812 13.632812 C 16.703125 13.609375 17.226562 13.59375 17.75 13.578125 Z M 17.75 13.578125 "/>
<path style=" stroke:none;fill-rule:nonzero;fill:rgb(49.019608%,36.470588%,96.470588%);fill-opacity:1;" d="M 17.460938 10.414062 C 16.945312 10.453125 16.40625 10.476562 15.835938 10.492188 C 16.351562 10.460938 16.898438 10.429688 17.460938 10.414062 Z M 17.460938 10.414062 "/>
<path style=" stroke:none;fill-rule:nonzero;fill:rgb(49.019608%,36.470588%,96.470588%);fill-opacity:1;" d="M 16.96875 12.523438 C 16.585938 12.570312 16.195312 12.585938 15.773438 12.601562 C 16.148438 12.570312 16.546875 12.53125 16.96875 12.523438 Z M 16.96875 12.523438 "/>
<path style=" stroke:none;fill-rule:nonzero;fill:rgb(49.019608%,36.470588%,96.470588%);fill-opacity:1;" d="M 17.71875 13.570312 C 17.226562 13.59375 16.703125 13.609375 16.15625 13.625 C 16.648438 13.601562 17.171875 13.578125 17.71875 13.570312 Z M 17.71875 13.570312 "/>
<path style=" stroke:none;fill-rule:nonzero;fill:rgb(49.019608%,36.470588%,96.470588%);fill-opacity:1;" d="M 17.507812 11.453125 C 17.0625 11.484375 16.585938 11.5 16.09375 11.515625 C 16.539062 11.484375 17.015625 11.460938 17.507812 11.453125 Z M 17.507812 11.453125 "/>
</g>
</svg>
