<svg version="1.1" id="Layer_1" xmlns="http://www.w3.org/2000/svg" xmlns:xlink="http://www.w3.org/1999/xlink" x="0px" y="0px"
	 width="100%" viewBox="0 0 500 500" enable-background="new 0 0 500 500" xml:space="preserve">
<path fill="#F2EFFE" opacity="1.000000" stroke="none"
	d="
M218.000000,501.000000
	C145.333344,501.000000 73.166702,501.000000 1.000039,501.000000
	C1.000026,334.333405 1.000026,167.666779 1.000013,1.000128
	C167.666565,1.000085 334.333130,1.000085 500.999756,1.000043
	C500.999847,167.666534 500.999847,334.333069 500.999939,500.999817
	C406.833344,501.000000 312.666656,501.000000 218.000000,501.000000
M251.130264,212.972397
	C237.234222,213.153381 225.845062,218.333466 219.573700,231.111816
	C212.875351,244.760117 212.133423,258.925476 219.184921,272.957397
	C222.961609,280.472748 229.126862,285.245178 236.418472,289.075012
	C246.490631,294.365295 256.800751,293.878143 267.076904,290.577209
	C274.444366,288.210602 280.926270,284.323395 285.038788,277.127625
	C289.501740,269.318756 292.272186,260.841522 292.322418,252.147308
	C292.360596,245.532516 289.694031,238.854416 287.912170,232.291000
	C286.312195,226.397614 283.177551,224.979355 277.032623,226.846558
	C283.657959,237.379364 283.492767,249.191269 282.196320,260.715271
	C280.900330,272.235779 274.062103,279.709412 262.244232,282.708557
	C242.960541,287.602325 229.631393,277.816376 224.437042,262.302582
	C219.079025,246.299881 228.182327,223.118530 249.467056,221.680817
	C260.727631,220.920212 272.048737,220.931000 283.344421,220.844681
	C300.097412,220.716629 316.852112,220.811539 333.753235,220.811539
	C333.753235,216.907410 333.753235,214.327118 333.753235,212.207123
	C314.779266,212.207123 296.036285,212.207123 276.472382,211.899628
	C268.312317,212.208710 260.152252,212.517792 251.130264,212.972397
M264.899506,195.287689
	C258.580353,195.821564 252.261185,196.355438 245.155594,197.035629
	C242.137482,197.462082 239.067230,197.666077 236.111542,198.358887
	C228.776489,200.078217 222.714020,203.788498 216.914764,208.825317
	C206.299561,218.044876 200.096161,229.798172 198.327255,242.991043
	C195.876144,261.271942 199.212753,278.798187 213.488693,292.319489
	C217.814667,296.416779 222.269028,300.904053 227.526581,303.388458
	C240.512894,309.524994 254.040741,310.494751 268.409821,307.157806
	C289.924286,302.161438 304.188171,283.494232 306.460419,263.348724
	C307.593048,253.306747 308.008545,243.255203 304.320801,233.185379
	C301.291718,224.914215 301.432434,224.131165 292.673187,227.084702
	C298.965759,236.983215 300.014679,248.117096 298.823822,259.178772
	C297.301575,273.318787 290.739777,285.200073 278.694794,293.355713
	C269.229736,299.764465 258.445648,301.112122 247.336746,300.129608
	C232.567017,298.823364 221.441803,290.898346 214.054108,278.743835
	C206.250473,265.905029 204.791672,251.709442 209.571945,237.069519
	C216.704895,215.224304 231.955032,205.964111 251.973373,205.099564
	C277.232422,204.008713 302.546997,204.201111 327.837708,203.846344
	C329.776276,203.819153 331.715607,203.842758 333.517761,203.842758
	C333.517761,200.554108 333.517761,197.977737 333.517761,196.116959
	C310.545807,196.116959 287.942139,196.116959 264.899506,195.287689
M250.091232,179.980164
	C230.673538,179.643677 214.240433,187.350464 201.366028,201.032181
	C185.197083,218.215012 179.270676,239.512405 182.119507,262.935486
	C184.020828,278.568085 190.553833,292.615387 201.289902,303.848541
	C212.520065,315.598694 226.498871,323.663116 243.238281,324.832092
	C251.675064,325.421234 260.394714,325.679749 268.649414,324.203339
	C278.698700,322.406006 287.716980,317.257660 295.965881,311.071442
	C320.530579,292.649170 330.534912,255.205872 317.903076,226.445679
	C314.885864,226.445679 311.985260,226.445679 308.608704,226.445679
	C315.072357,239.624908 315.972809,253.011841 313.140289,266.594055
	C310.166962,280.851593 304.211456,293.834442 292.485870,302.998108
	C278.467987,313.953308 262.344330,318.757019 244.511902,316.152863
	C225.102585,313.318481 209.631180,303.937744 199.777634,286.745270
	C189.444214,268.715454 188.225388,249.627365 194.694244,229.894028
	C198.084961,219.550613 203.365189,210.087952 211.608536,203.395416
	C223.240723,193.951569 237.012131,188.830322 252.395294,188.748947
	C268.864929,188.661835 285.331848,188.151749 301.801483,187.950043
	C312.097931,187.823959 322.397156,187.926605 332.669373,187.926605
	C332.669373,184.230865 332.669373,181.351730 332.669373,179.149551
	C315.007599,179.149551 297.711914,179.149597 280.416229,179.149475
	C278.240234,179.149460 276.064270,179.148514 273.249207,178.674133
	C265.811646,179.076904 258.374084,179.479660 250.091232,179.980164
M272.547882,162.418472
	C264.036194,162.906876 255.524475,163.395279 246.209793,163.970184
	C239.678268,165.024673 233.009079,165.560135 226.645584,167.248077
	C215.426712,170.223892 205.156403,175.449646 196.317032,183.055725
	C179.022049,197.937683 169.292847,216.965988 166.610840,239.510422
	C165.650513,247.582794 164.273117,255.967331 165.451706,263.855957
	C167.796051,279.547760 173.311813,294.354767 182.668259,307.501404
	C193.817841,323.167603 209.580933,332.571594 227.153351,338.575867
	C238.878174,342.582062 251.351898,343.125702 264.009216,341.421082
	C282.781525,338.892914 299.073395,331.498688 312.330444,318.322205
	C326.968201,303.773438 335.984406,286.226593 338.191193,265.240143
	C339.449951,253.269211 339.316162,241.636169 335.893860,230.096161
	C334.411102,225.096283 329.732849,223.762634 325.681244,226.782913
	C327.158508,232.166458 329.310852,237.317184 329.911469,242.642929
	C333.406189,273.629791 320.471954,307.178101 288.642853,324.016571
	C278.939301,329.150055 268.667938,332.261536 257.847198,332.919891
	C229.889359,334.620941 206.803085,324.014465 190.149765,301.962372
	C171.859451,277.742615 171.062103,250.168045 179.854202,222.104782
	C183.625977,210.065720 191.379120,200.145737 200.592194,191.635391
	C212.721970,180.430786 227.671097,174.998871 243.729889,173.078552
	C253.706711,171.885483 263.873260,172.093765 273.957184,172.021103
	C293.736755,171.878571 313.518097,171.979187 333.454865,171.979187
	C333.270508,167.857620 333.147430,165.105972 333.056183,163.066345
	C313.062805,163.066345 293.102142,163.066345 272.547882,162.418472
z"/>
<path fill="#7D5DF6" opacity="1.000000" stroke="none"
	d="
M273.141479,163.066345
	C293.102142,163.066345 313.062805,163.066345 333.056183,163.066345
	C333.147430,165.105972 333.270508,167.857620 333.454865,171.979187
	C313.518097,171.979187 293.736755,171.878571 273.957184,172.021103
	C263.873260,172.093765 253.706711,171.885483 243.729889,173.078552
	C227.671097,174.998871 212.721970,180.430786 200.592194,191.635391
	C191.379120,200.145737 183.625977,210.065720 179.854202,222.104782
	C171.062103,250.168045 171.859451,277.742615 190.149765,301.962372
	C206.803085,324.014465 229.889359,334.620941 257.847198,332.919891
	C268.667938,332.261536 278.939301,329.150055 288.642853,324.016571
	C320.471954,307.178101 333.406189,273.629791 329.911469,242.642929
	C329.310852,237.317184 327.158508,232.166458 325.681244,226.782913
	C329.732849,223.762634 334.411102,225.096283 335.893860,230.096161
	C339.316162,241.636169 339.449951,253.269211 338.191193,265.240143
	C335.984406,286.226593 326.968201,303.773438 312.330444,318.322205
	C299.073395,331.498688 282.781525,338.892914 264.009216,341.421082
	C251.351898,343.125702 238.878174,342.582062 227.153351,338.575867
	C209.580933,332.571594 193.817841,323.167603 182.668259,307.501404
	C173.311813,294.354767 167.796051,279.547760 165.451706,263.855957
	C164.273117,255.967331 165.650513,247.582794 166.610840,239.510422
	C169.292847,216.965988 179.022049,197.937683 196.317032,183.055725
	C205.156403,175.449646 215.426712,170.223892 226.645584,167.248077
	C233.009079,165.560135 239.678268,165.024673 247.073730,163.976135
	C256.338928,163.676849 264.740204,163.371597 273.141479,163.066345
z"/>
<path fill="#7D5DF6" opacity="1.000000" stroke="none"
	d="
M273.888275,179.147980
	C276.064270,179.148514 278.240234,179.149460 280.416229,179.149475
	C297.711914,179.149597 315.007599,179.149551 332.669373,179.149551
	C332.669373,181.351730 332.669373,184.230865 332.669373,187.926605
	C322.397156,187.926605 312.097931,187.823959 301.801483,187.950043
	C285.331848,188.151749 268.864929,188.661835 252.395294,188.748947
	C237.012131,188.830322 223.240723,193.951569 211.608536,203.395416
	C203.365189,210.087952 198.084961,219.550613 194.694244,229.894028
	C188.225388,249.627365 189.444214,268.715454 199.777634,286.745270
	C209.631180,303.937744 225.102585,313.318481 244.511902,316.152863
	C262.344330,318.757019 278.467987,313.953308 292.485870,302.998108
	C304.211456,293.834442 310.166962,280.851593 313.140289,266.594055
	C315.972809,253.011841 315.072357,239.624908 308.608704,226.445679
	C311.985260,226.445679 314.885864,226.445679 317.903076,226.445679
	C330.534912,255.205872 320.530579,292.649170 295.965881,311.071442
	C287.716980,317.257660 278.698700,322.406006 268.649414,324.203339
	C260.394714,325.679749 251.675064,325.421234 243.238281,324.832092
	C226.498871,323.663116 212.520065,315.598694 201.289902,303.848541
	C190.553833,292.615387 184.020828,278.568085 182.119507,262.935486
	C179.270676,239.512405 185.197083,218.215012 201.366028,201.032181
	C214.240433,187.350464 230.673538,179.643677 250.981796,179.989807
	C259.210999,179.715637 266.549622,179.431808 273.888275,179.147980
z"/>
<path fill="#7D5DF6" opacity="1.000000" stroke="none"
	d="
M265.338470,196.116959
	C287.942139,196.116959 310.545807,196.116959 333.517761,196.116959
	C333.517761,197.977737 333.517761,200.554108 333.517761,203.842758
	C331.715607,203.842758 329.776276,203.819153 327.837708,203.846344
	C302.546997,204.201111 277.232422,204.008713 251.973373,205.099564
	C231.955032,205.964111 216.704895,215.224304 209.571945,237.069519
	C204.791672,251.709442 206.250473,265.905029 214.054108,278.743835
	C221.441803,290.898346 232.567017,298.823364 247.336746,300.129608
	C258.445648,301.112122 269.229736,299.764465 278.694794,293.355713
	C290.739777,285.200073 297.301575,273.318787 298.823822,259.178772
	C300.014679,248.117096 298.965759,236.983215 292.673187,227.084702
	C301.432434,224.131165 301.291718,224.914215 304.320801,233.185379
	C308.008545,243.255203 307.593048,253.306747 306.460419,263.348724
	C304.188171,283.494232 289.924286,302.161438 268.409821,307.157806
	C254.040741,310.494751 240.512894,309.524994 227.526581,303.388458
	C222.269028,300.904053 217.814667,296.416779 213.488693,292.319489
	C199.212753,278.798187 195.876144,261.271942 198.327255,242.991043
	C200.096161,229.798172 206.299561,218.044876 216.914764,208.825317
	C222.714020,203.788498 228.776489,200.078217 236.111542,198.358887
	C239.067230,197.666077 242.137482,197.462082 246.017395,197.009186
	C253.032272,196.694153 259.185364,196.405548 265.338470,196.116959
z"/>
<path fill="#7D5DF6" opacity="1.000000" stroke="none"
	d="
M277.293274,212.207123
	C296.036285,212.207123 314.779266,212.207123 333.753235,212.207123
	C333.753235,214.327118 333.753235,216.907410 333.753235,220.811539
	C316.852112,220.811539 300.097412,220.716629 283.344421,220.844681
	C272.048737,220.931000 260.727631,220.920212 249.467056,221.680817
	C228.182327,223.118530 219.079025,246.299881 224.437042,262.302582
	C229.631393,277.816376 242.960541,287.602325 262.244232,282.708557
	C274.062103,279.709412 280.900330,272.235779 282.196320,260.715271
	C283.492767,249.191269 283.657959,237.379364 277.032623,226.846558
	C283.177551,224.979355 286.312195,226.397614 287.912170,232.291000
	C289.694031,238.854416 292.360596,245.532516 292.322418,252.147308
	C292.272186,260.841522 289.501740,269.318756 285.038788,277.127625
	C280.926270,284.323395 274.444366,288.210602 267.076904,290.577209
	C256.800751,293.878143 246.490631,294.365295 236.418472,289.075012
	C229.126862,285.245178 222.961609,280.472748 219.184921,272.957397
	C212.133423,258.925476 212.875351,244.760117 219.573700,231.111816
	C225.845062,218.333466 237.234222,213.153381 252.023209,212.963257
	C261.041870,212.705124 269.167572,212.456116 277.293274,212.207123
z"/>
<path fill="#7D5DF6" opacity="1.000000" stroke="none"
	d="
M272.844666,162.742401
	C264.740204,163.371597 256.338928,163.676849 247.475220,163.932892
	C255.524475,163.395279 264.036194,162.906876 272.844666,162.742401
z"/>
<path fill="#7D5DF6" opacity="1.000000" stroke="none"
	d="
M265.118988,195.702332
	C259.185364,196.405548 253.032272,196.694153 246.410614,196.936035
	C252.261185,196.355438 258.580353,195.821564 265.118988,195.702332
z"/>
<path fill="#7D5DF6" opacity="1.000000" stroke="none"
	d="
M276.882812,212.053375
	C269.167572,212.456116 261.041870,212.705124 252.454178,212.890488
	C260.152252,212.517792 268.312317,212.208710 276.882812,212.053375
z"/>
<path fill="#7D5DF6" opacity="1.000000" stroke="none"
	d="
M273.568726,178.911057
	C266.549622,179.431808 259.210999,179.715637 251.404449,179.940933
	C258.374084,179.479660 265.811646,179.076904 273.568726,178.911057
z"/>
</svg>
