<svg width="327" height="204" viewBox="0 0 327 204" fill="none" xmlns="http://www.w3.org/2000/svg">
<g clip-path="url(#clip0_29361_4055)">
<rect width="327" height="204" rx="18" fill="#20136E"/>
<g opacity="0.1">
<path d="M283 204C283 179.699 302.699 160 327 160V204H283Z" fill="white"/>
<rect x="283" y="72" width="44" height="44" fill="white"/>
<path d="M326.912 94V116H304.956C304.956 103.849 314.785 94 326.912 94Z" fill="#20136E"/>
<path d="M326.912 72V94C314.785 94 304.956 84.151 304.956 72H326.912Z" fill="#20136E"/>
<path d="M283 72H304.956C304.956 84.151 295.127 94 283 94V72Z" fill="#20136E"/>
<path d="M304.956 116H283V94C295.127 94 304.956 103.849 304.956 116Z" fill="#20136E"/>
<path d="M283 138C283 125.85 292.85 116 305 116C317.15 116 327 125.85 327 138V160H283V138Z" fill="white"/>
<path d="M239 160H283V182C283 194.15 273.15 204 261 204C248.85 204 239 194.15 239 182V160Z" fill="white"/>
<path d="M263.856 118.961C263.856 120.592 260.9 138.113 260.9 138.113C260.9 138.113 257.944 120.592 257.944 118.961C257.944 118.176 258.256 117.423 258.81 116.867C259.364 116.312 260.116 116 260.9 116C261.684 116 262.436 116.312 262.991 116.867C263.545 117.423 263.856 118.176 263.856 118.961Z" fill="white"/>
<path d="M257.944 156.84C257.944 155.209 260.9 137.688 260.9 137.688C260.9 137.688 263.856 155.209 263.856 156.84C263.856 157.625 263.545 158.378 262.991 158.934C262.436 159.489 261.684 159.801 260.9 159.801C260.116 159.801 259.364 159.489 258.81 158.934C258.256 158.378 257.944 157.625 257.944 156.84Z" fill="white"/>
<path d="M279.84 140.856C278.209 140.856 260.688 137.9 260.688 137.9C260.688 137.9 278.209 134.944 279.84 134.944C280.626 134.944 281.379 135.256 281.934 135.81C282.489 136.364 282.801 137.116 282.801 137.9C282.801 138.684 282.489 139.436 281.934 139.991C281.379 140.545 280.626 140.856 279.84 140.856Z" fill="white"/>
<path d="M241.961 134.944C243.592 134.944 261.113 137.9 261.113 137.9C261.113 137.9 243.592 140.856 241.961 140.856C241.176 140.856 240.423 140.545 239.867 139.991C239.312 139.436 239 138.684 239 137.9C239 137.116 239.312 136.364 239.867 135.81C240.423 135.256 241.176 134.944 241.961 134.944Z" fill="white"/>
<path d="M276.412 126.607C275.25 127.761 260.754 138.047 260.754 138.047C260.754 138.047 271.061 123.58 272.217 122.42C272.492 122.145 272.819 121.927 273.179 121.778C273.539 121.629 273.925 121.553 274.314 121.553C274.704 121.553 275.09 121.629 275.45 121.778C275.81 121.927 276.137 122.145 276.412 122.42C276.688 122.695 276.906 123.021 277.055 123.381C277.205 123.74 277.281 124.125 277.281 124.514C277.281 124.903 277.205 125.288 277.055 125.647C276.906 126.006 276.688 126.332 276.412 126.607Z" fill="white"/>
<path d="M245.42 149.216C246.58 148.06 261.047 137.753 261.047 137.753C261.047 137.753 250.761 152.25 249.607 153.412C249.052 153.968 248.299 154.281 247.514 154.281C246.728 154.281 245.975 153.968 245.42 153.412C244.865 152.855 244.553 152.101 244.553 151.314C244.553 150.527 244.865 149.773 245.42 149.216Z" fill="white"/>
<path d="M272.217 153.412C271.061 152.25 260.754 137.753 260.754 137.753C260.754 137.753 275.25 148.06 276.412 149.216C276.969 149.773 277.281 150.527 277.281 151.314C277.281 152.101 276.969 152.855 276.412 153.412C275.856 153.968 275.101 154.281 274.314 154.281C273.528 154.281 272.773 153.968 272.217 153.412Z" fill="white"/>
<path d="M249.607 122.42C250.761 123.58 261.047 138.047 261.047 138.047C261.047 138.047 246.58 127.761 245.42 126.607C245.145 126.332 244.927 126.006 244.778 125.647C244.629 125.288 244.553 124.903 244.553 124.514C244.553 124.125 244.629 123.74 244.778 123.381C244.927 123.021 245.145 122.695 245.42 122.42C245.695 122.145 246.021 121.927 246.381 121.778C246.74 121.629 247.125 121.553 247.514 121.553C247.903 121.553 248.288 121.629 248.647 121.778C249.006 121.927 249.332 122.145 249.607 122.42Z" fill="white"/>
</g>
<g opacity="0.1">
<path d="M0 31.0755C0 13.913 13.913 0 31.0755 0C31.0755 17.1625 17.1625 31.0755 0 31.0755Z" fill="white"/>
<path d="M31.0752 29.9245C31.0752 13.3976 44.4729 0 60.9997 0V31.0755H31.0752V29.9245Z" fill="white"/>
<path d="M0 31.0757H1.15097C17.6778 31.0757 31.0755 44.4734 31.0755 61.0002H29.9245C13.3976 61.0002 0 47.6025 0 31.0757Z" fill="white"/>
<path d="M31.0752 31.0757H60.9997C60.9997 47.6025 47.602 61.0002 31.0752 61.0002V31.0757Z" fill="white"/>
<path d="M31.0752 61H45.462C54.0432 61 60.9997 67.9565 60.9997 76.5377C60.9997 85.119 54.0432 92.0755 45.462 92.0755H31.0752V61Z" fill="white"/>
<rect y="61.3838" width="30.6918" height="30.6918" fill="white"/>
<path d="M30.6306 76.73V92.0759H15.3154C15.3154 83.6 22.1717 76.73 30.6306 76.73Z" fill="#20136E"/>
<path d="M30.6306 61.3838V76.7297C22.1717 76.7297 15.3154 69.8596 15.3154 61.3838H30.6306Z" fill="#20136E"/>
<path d="M0 61.3838H15.3152C15.3152 69.8596 8.45889 76.7297 0 76.7297V61.3838Z" fill="#20136E"/>
<path d="M15.3152 92.0759H0V76.73C8.45889 76.73 15.3152 83.6 15.3152 92.0759Z" fill="#20136E"/>
<rect x="61" width="30.6918" height="30.6918" fill="white"/>
<path d="M91.6306 15.3462V30.6921H76.3154C76.3154 22.2162 83.1717 15.3462 91.6306 15.3462Z" fill="#20136E"/>
<path d="M91.6306 0V15.3459C83.1717 15.3459 76.3154 8.47585 76.3154 0H91.6306Z" fill="#20136E"/>
<path d="M61 0H76.3152C76.3152 8.47585 69.4589 15.3459 61 15.3459V0Z" fill="#20136E"/>
<path d="M76.3152 30.6921H61V15.3462C69.4589 15.3462 76.3152 22.2162 76.3152 30.6921Z" fill="#20136E"/>
</g>
<path d="M297.269 29.0015C297.682 28.6826 298.274 28.7583 298.593 29.1706C303.142 35.0511 303.129 42.744 298.594 48.632C298.276 49.045 297.684 49.122 297.271 48.8039C296.858 48.4859 296.781 47.8932 297.099 47.4802C301.112 42.2686 301.121 35.5234 297.1 30.3256C296.781 29.9132 296.857 29.3205 297.269 29.0015Z" fill="white"/>
<path d="M293.502 31.4362C293.914 31.1169 294.507 31.1921 294.826 31.6042C298.238 36.0076 298.225 41.7872 294.828 46.1969C294.51 46.6098 293.917 46.6867 293.504 46.3687C293.091 46.0506 293.015 45.458 293.333 45.045C296.209 41.3107 296.216 36.4797 293.334 32.7604C293.015 32.3483 293.09 31.7555 293.502 31.4362Z" fill="white"/>
<path d="M291.692 34.9561C291.374 34.543 290.781 34.4658 290.368 34.7838C289.955 35.1017 289.878 35.6943 290.196 36.1074C291.499 37.8004 291.507 39.9748 290.196 41.6748C289.878 42.0877 289.955 42.6803 290.368 42.9986C290.781 43.3168 291.373 43.2401 291.691 42.8273C293.528 40.4447 293.515 37.3244 291.692 34.9561Z" fill="white"/>
<path d="M272.325 167.273V176H270.744V168.811H270.693L268.652 170.115V168.666L270.821 167.273H272.325ZM278.091 167.273V176H276.51V168.811H276.459L274.418 170.115V168.666L276.587 167.273H278.091ZM286.863 166.864L284.05 177.312H282.7L285.512 166.864H286.863ZM290.807 176V174.858L293.837 171.888C294.126 171.595 294.368 171.335 294.561 171.108C294.754 170.881 294.899 170.661 294.996 170.447C295.092 170.234 295.141 170.007 295.141 169.766C295.141 169.49 295.078 169.254 294.953 169.058C294.828 168.859 294.656 168.706 294.438 168.598C294.219 168.49 293.97 168.436 293.692 168.436C293.405 168.436 293.153 168.496 292.938 168.615C292.722 168.732 292.554 168.898 292.435 169.114C292.318 169.33 292.26 169.587 292.26 169.885H290.756C290.756 169.331 290.882 168.849 291.135 168.44C291.388 168.031 291.736 167.714 292.179 167.49C292.625 167.266 293.136 167.153 293.713 167.153C294.298 167.153 294.813 167.263 295.256 167.482C295.699 167.7 296.043 168 296.287 168.381C296.534 168.761 296.658 169.196 296.658 169.685C296.658 170.011 296.595 170.332 296.47 170.648C296.345 170.963 296.125 171.312 295.81 171.696C295.497 172.08 295.058 172.544 294.493 173.089L292.989 174.619V174.679H296.79V176H290.807ZM301.294 176.119C300.726 176.119 300.217 176.013 299.768 175.8C299.32 175.584 298.963 175.288 298.699 174.913C298.438 174.538 298.298 174.109 298.281 173.626H299.815C299.844 173.984 299.999 174.277 300.28 174.504C300.561 174.729 300.899 174.841 301.294 174.841C301.604 174.841 301.879 174.77 302.121 174.628C302.362 174.486 302.553 174.288 302.692 174.036C302.831 173.783 302.899 173.494 302.896 173.17C302.899 172.841 302.83 172.548 302.688 172.293C302.545 172.037 302.351 171.837 302.104 171.692C301.857 171.544 301.572 171.47 301.251 171.47C300.99 171.467 300.733 171.516 300.48 171.615C300.227 171.714 300.027 171.845 299.879 172.007L298.452 171.773L298.908 167.273H303.97V168.594H300.216L299.964 170.908H300.016C300.178 170.717 300.406 170.56 300.702 170.435C300.997 170.307 301.321 170.243 301.673 170.243C302.202 170.243 302.673 170.368 303.088 170.618C303.503 170.865 303.83 171.206 304.068 171.641C304.307 172.075 304.426 172.572 304.426 173.132C304.426 173.709 304.293 174.223 304.026 174.675C303.761 175.124 303.393 175.477 302.922 175.736C302.453 175.991 301.911 176.119 301.294 176.119Z" fill="white" fill-opacity="0.8"/>
<path d="M243.057 176V167.273H248.324V168.21H244.114V171.159H248.051V172.097H244.114V175.062H248.392V176H243.057ZM250.842 169.455L252.411 172.131L253.979 169.455H255.138L253.024 172.727L255.138 176H253.979L252.411 173.46L250.842 176H249.683L251.763 172.727L249.683 169.455H250.842ZM256.573 178.455V169.455H257.544V170.494H257.664C257.738 170.381 257.84 170.236 257.971 170.06C258.104 169.881 258.294 169.722 258.542 169.582C258.792 169.44 259.13 169.369 259.556 169.369C260.107 169.369 260.593 169.507 261.013 169.783C261.434 170.058 261.762 170.449 261.998 170.955C262.233 171.46 262.351 172.057 262.351 172.744C262.351 173.438 262.233 174.038 261.998 174.547C261.762 175.053 261.435 175.445 261.017 175.723C260.6 175.999 260.118 176.136 259.573 176.136C259.152 176.136 258.816 176.067 258.563 175.928C258.31 175.786 258.115 175.625 257.979 175.446C257.843 175.264 257.738 175.114 257.664 174.994H257.578V178.455H256.573ZM257.561 172.727C257.561 173.222 257.634 173.658 257.779 174.036C257.924 174.411 258.135 174.705 258.414 174.918C258.692 175.128 259.033 175.233 259.436 175.233C259.857 175.233 260.208 175.122 260.489 174.901C260.773 174.676 260.986 174.375 261.128 173.997C261.273 173.616 261.346 173.193 261.346 172.727C261.346 172.267 261.275 171.852 261.132 171.483C260.993 171.111 260.782 170.817 260.498 170.601C260.216 170.382 259.863 170.273 259.436 170.273C259.027 170.273 258.684 170.376 258.405 170.584C258.127 170.788 257.917 171.075 257.775 171.445C257.632 171.811 257.561 172.239 257.561 172.727Z" fill="white" fill-opacity="0.8"/>
<path d="M26.2628 176H24.2855L27.2983 167.273H29.6761L32.6847 176H30.7074L28.5213 169.267H28.4531L26.2628 176ZM26.1392 172.57H30.8097V174.01H26.1392V172.57ZM35.8163 167.273V176H34.001V167.273H35.8163ZM40.5535 176.128C39.8802 176.128 39.3006 175.991 38.8148 175.719C38.3319 175.443 37.9597 175.054 37.6984 174.551C37.437 174.045 37.3063 173.447 37.3063 172.757C37.3063 172.084 37.437 171.493 37.6984 170.984C37.9597 170.476 38.3276 170.08 38.8021 169.795C39.2793 169.511 39.839 169.369 40.481 169.369C40.9129 169.369 41.3148 169.439 41.687 169.578C42.062 169.714 42.3887 169.92 42.6671 170.196C42.9484 170.472 43.1671 170.818 43.3234 171.236C43.4796 171.651 43.5577 172.136 43.5577 172.693V173.192H38.0308V172.067H41.8489C41.8489 171.805 41.7921 171.574 41.6785 171.372C41.5648 171.17 41.4072 171.013 41.2055 170.899C41.0066 170.783 40.7751 170.724 40.5109 170.724C40.2353 170.724 39.991 170.788 39.7779 170.916C39.5677 171.041 39.4029 171.21 39.2836 171.423C39.1643 171.634 39.1032 171.868 39.1004 172.126V173.196C39.1004 173.52 39.16 173.8 39.2793 174.036C39.4015 174.271 39.5734 174.453 39.795 174.581C40.0165 174.709 40.2793 174.773 40.5833 174.773C40.785 174.773 40.9697 174.744 41.1373 174.688C41.3049 174.631 41.4484 174.545 41.5677 174.432C41.687 174.318 41.7779 174.179 41.8404 174.014L43.5194 174.125C43.4342 174.528 43.2594 174.881 42.9952 175.182C42.7339 175.48 42.3958 175.713 41.981 175.881C41.5691 176.045 41.0933 176.128 40.5535 176.128ZM46.4423 169.455L47.644 171.743L48.8755 169.455H50.7377L48.8414 172.727L50.7888 176H48.9352L47.644 173.737L46.3741 176H44.4991L46.4423 172.727L44.5673 169.455H46.4423ZM59.9616 169.783C59.9276 169.439 59.7813 169.172 59.5227 168.982C59.2642 168.791 58.9134 168.696 58.4702 168.696C58.169 168.696 57.9148 168.739 57.7074 168.824C57.5 168.906 57.3409 169.021 57.2301 169.169C57.1222 169.317 57.0682 169.484 57.0682 169.672C57.0625 169.828 57.0952 169.964 57.1662 170.081C57.2401 170.197 57.3409 170.298 57.4688 170.384C57.5966 170.466 57.7443 170.538 57.9119 170.601C58.0795 170.661 58.2585 170.712 58.4489 170.754L59.233 170.942C59.6136 171.027 59.9631 171.141 60.2812 171.283C60.5994 171.425 60.875 171.599 61.108 171.807C61.3409 172.014 61.5213 172.259 61.6491 172.54C61.7798 172.821 61.8466 173.143 61.8494 173.507C61.8466 174.041 61.7102 174.504 61.4403 174.896C61.1733 175.286 60.7869 175.588 60.2812 175.804C59.7784 176.017 59.1719 176.124 58.4616 176.124C57.7571 176.124 57.1435 176.016 56.6207 175.8C56.1009 175.584 55.6946 175.264 55.402 174.841C55.1122 174.415 54.9602 173.888 54.946 173.26H56.7315C56.7514 173.553 56.8352 173.797 56.983 173.993C57.1335 174.186 57.3338 174.332 57.5838 174.432C57.8366 174.528 58.1222 174.577 58.4403 174.577C58.7528 174.577 59.0241 174.531 59.2543 174.44C59.4872 174.349 59.6676 174.223 59.7955 174.061C59.9233 173.899 59.9872 173.713 59.9872 173.503C59.9872 173.307 59.929 173.142 59.8125 173.009C59.6989 172.875 59.5313 172.761 59.3097 172.668C59.0909 172.574 58.8224 172.489 58.5043 172.412L57.554 172.173C56.8182 171.994 56.2372 171.714 55.8111 171.334C55.3849 170.953 55.1733 170.44 55.1761 169.795C55.1733 169.267 55.3139 168.805 55.598 168.411C55.8849 168.016 56.2784 167.707 56.7784 167.486C57.2784 167.264 57.8466 167.153 58.483 167.153C59.1307 167.153 59.696 167.264 60.179 167.486C60.6648 167.707 61.0426 168.016 61.3125 168.411C61.5824 168.805 61.7216 169.263 61.7301 169.783H59.9616ZM66.3138 176.128C65.6434 176.128 65.0667 175.986 64.5837 175.702C64.1036 175.415 63.7343 175.017 63.4758 174.509C63.2201 174 63.0923 173.415 63.0923 172.753C63.0923 172.082 63.2215 171.494 63.48 170.989C63.7414 170.48 64.1121 170.084 64.5923 169.8C65.0724 169.513 65.6434 169.369 66.3053 169.369C66.8763 169.369 67.3763 169.473 67.8053 169.68C68.2343 169.888 68.5738 170.179 68.8238 170.554C69.0738 170.929 69.2116 171.369 69.2371 171.875H67.5241C67.4758 171.548 67.3479 171.286 67.1406 171.087C66.936 170.885 66.6675 170.784 66.3352 170.784C66.0539 170.784 65.8082 170.861 65.5979 171.014C65.3906 171.165 65.2286 171.385 65.1121 171.675C64.9957 171.964 64.9374 172.315 64.9374 172.727C64.9374 173.145 64.9942 173.5 65.1079 173.793C65.2244 174.085 65.3877 174.308 65.5979 174.462C65.8082 174.615 66.0539 174.692 66.3352 174.692C66.5425 174.692 66.7286 174.649 66.8934 174.564C67.061 174.479 67.1988 174.355 67.3067 174.193C67.4175 174.028 67.49 173.831 67.5241 173.601H69.2371C69.2087 174.101 69.0724 174.541 68.8281 174.922C68.5866 175.3 68.2528 175.595 67.8266 175.808C67.4005 176.021 66.8962 176.128 66.3138 176.128ZM73.6568 176.128C72.9949 176.128 72.4224 175.987 71.9395 175.706C71.4594 175.422 71.0886 175.027 70.8273 174.521C70.5659 174.013 70.4352 173.423 70.4352 172.753C70.4352 172.077 70.5659 171.486 70.8273 170.98C71.0886 170.472 71.4594 170.077 71.9395 169.795C72.4224 169.511 72.9949 169.369 73.6568 169.369C74.3187 169.369 74.8898 169.511 75.3699 169.795C75.8528 170.077 76.225 170.472 76.4864 170.98C76.7477 171.486 76.8784 172.077 76.8784 172.753C76.8784 173.423 76.7477 174.013 76.4864 174.521C76.225 175.027 75.8528 175.422 75.3699 175.706C74.8898 175.987 74.3187 176.128 73.6568 176.128ZM73.6653 174.722C73.9665 174.722 74.2179 174.636 74.4196 174.466C74.6213 174.293 74.7733 174.057 74.8756 173.759C74.9807 173.46 75.0332 173.121 75.0332 172.74C75.0332 172.359 74.9807 172.02 74.8756 171.722C74.7733 171.423 74.6213 171.187 74.4196 171.014C74.2179 170.841 73.9665 170.754 73.6653 170.754C73.3614 170.754 73.1057 170.841 72.8983 171.014C72.6937 171.187 72.5389 171.423 72.4338 171.722C72.3315 172.02 72.2804 172.359 72.2804 172.74C72.2804 173.121 72.3315 173.46 72.4338 173.759C72.5389 174.057 72.6937 174.293 72.8983 174.466C73.1057 174.636 73.3614 174.722 73.6653 174.722ZM81.8403 169.455V170.818H77.8986V169.455H81.8403ZM78.7935 167.886H80.6088V173.989C80.6088 174.156 80.6344 174.287 80.6855 174.381C80.7366 174.472 80.8077 174.536 80.8986 174.572C80.9923 174.609 81.1003 174.628 81.2224 174.628C81.3077 174.628 81.3929 174.621 81.4781 174.607C81.5634 174.589 81.6287 174.577 81.6741 174.568L81.9597 175.919C81.8688 175.947 81.7409 175.98 81.5761 176.017C81.4114 176.057 81.2111 176.081 80.9753 176.089C80.5378 176.107 80.1543 176.048 79.8247 175.915C79.498 175.781 79.2438 175.574 79.0619 175.293C78.8801 175.011 78.7906 174.656 78.7935 174.227V167.886ZM86.2099 176.128C85.5395 176.128 84.9628 175.986 84.4798 175.702C83.9997 175.415 83.6304 175.017 83.3719 174.509C83.1162 174 82.9884 173.415 82.9884 172.753C82.9884 172.082 83.1176 171.494 83.3761 170.989C83.6375 170.48 84.0082 170.084 84.4884 169.8C84.9685 169.513 85.5395 169.369 86.2014 169.369C86.7724 169.369 87.2724 169.473 87.7014 169.68C88.1304 169.888 88.4699 170.179 88.7199 170.554C88.9699 170.929 89.1077 171.369 89.1332 171.875H87.4202C87.3719 171.548 87.244 171.286 87.0366 171.087C86.8321 170.885 86.5636 170.784 86.2313 170.784C85.95 170.784 85.7043 170.861 85.494 171.014C85.2866 171.165 85.1247 171.385 85.0082 171.675C84.8918 171.964 84.8335 172.315 84.8335 172.727C84.8335 173.145 84.8903 173.5 85.004 173.793C85.1205 174.085 85.2838 174.308 85.494 174.462C85.7043 174.615 85.95 174.692 86.2313 174.692C86.4386 174.692 86.6247 174.649 86.7895 174.564C86.9571 174.479 87.0949 174.355 87.2028 174.193C87.3136 174.028 87.3861 173.831 87.4202 173.601H89.1332C89.1048 174.101 88.9685 174.541 88.7241 174.922C88.4827 175.3 88.1489 175.595 87.7227 175.808C87.2966 176.021 86.7923 176.128 86.2099 176.128ZM92.4109 172.216V176H90.5955V167.273H92.3597V170.609H92.4364C92.5842 170.223 92.8228 169.92 93.1523 169.702C93.4819 169.48 93.8952 169.369 94.3924 169.369C94.8469 169.369 95.2433 169.469 95.5813 169.668C95.9222 169.864 96.1864 170.146 96.3739 170.516C96.5643 170.882 96.658 171.321 96.6552 171.832V176H94.8398V172.156C94.8427 171.753 94.7404 171.439 94.533 171.214C94.3285 170.99 94.0415 170.878 93.6722 170.878C93.4251 170.878 93.2063 170.93 93.016 171.036C92.8285 171.141 92.6808 171.294 92.5728 171.496C92.4677 171.695 92.4137 171.935 92.4109 172.216Z" fill="white"/>
<path d="M30.4915 125.199C29.4877 125.199 28.5928 125.014 27.8068 124.645C27.0256 124.276 26.4053 123.767 25.946 123.118C25.4867 122.469 25.2476 121.726 25.2287 120.888H28.2116C28.2448 121.451 28.4815 121.908 28.9219 122.259C29.3622 122.609 29.8854 122.784 30.4915 122.784C30.9744 122.784 31.4006 122.678 31.7699 122.464C32.1439 122.247 32.4351 121.946 32.6435 121.562C32.8565 121.174 32.9631 120.729 32.9631 120.227C32.9631 119.716 32.8542 119.266 32.6364 118.878C32.4233 118.49 32.1274 118.187 31.7486 117.969C31.3698 117.751 30.9366 117.64 30.4489 117.635C30.0227 117.635 29.6084 117.723 29.206 117.898C28.8082 118.073 28.4981 118.312 28.2756 118.615L25.5412 118.125L26.2301 110.455H35.1222V112.969H28.7656L28.3892 116.612H28.4744C28.7301 116.252 29.116 115.954 29.6321 115.717C30.1482 115.481 30.7259 115.362 31.3651 115.362C32.241 115.362 33.0223 115.568 33.7088 115.98C34.3954 116.392 34.9375 116.958 35.3352 117.678C35.733 118.393 35.9295 119.216 35.9247 120.149C35.9295 121.129 35.7022 122 35.2429 122.763C34.7884 123.52 34.1515 124.117 33.3324 124.553C32.518 124.983 31.571 125.199 30.4915 125.199ZM38.0696 125V122.784L43.2472 117.99C43.6875 117.564 44.0568 117.18 44.3551 116.839C44.6581 116.499 44.8878 116.165 45.044 115.838C45.2003 115.507 45.2784 115.149 45.2784 114.766C45.2784 114.339 45.1813 113.973 44.9872 113.665C44.7931 113.352 44.5279 113.113 44.1918 112.947C43.8556 112.777 43.4744 112.692 43.0483 112.692C42.6032 112.692 42.215 112.782 41.8835 112.962C41.5521 113.142 41.2964 113.4 41.1165 113.736C40.9366 114.072 40.8466 114.472 40.8466 114.936H37.9276C37.9276 113.984 38.143 113.158 38.5739 112.457C39.0047 111.757 39.6084 111.214 40.3849 110.831C41.1615 110.447 42.0563 110.256 43.0696 110.256C44.1113 110.256 45.018 110.44 45.7898 110.81C46.5663 111.174 47.17 111.681 47.6009 112.33C48.0317 112.978 48.2472 113.722 48.2472 114.56C48.2472 115.109 48.1383 115.651 47.9205 116.186C47.7074 116.721 47.3262 117.315 46.777 117.969C46.2277 118.617 45.4536 119.396 44.4545 120.305L42.331 122.386V122.486H48.4389V125H38.0696ZM50.6673 125V122.784L55.8448 117.99C56.2852 117.564 56.6545 117.18 56.9528 116.839C57.2558 116.499 57.4854 116.165 57.6417 115.838C57.7979 115.507 57.8761 115.149 57.8761 114.766C57.8761 114.339 57.779 113.973 57.5849 113.665C57.3907 113.352 57.1256 113.113 56.7894 112.947C56.4532 112.777 56.0721 112.692 55.646 112.692C55.2009 112.692 54.8126 112.782 54.4812 112.962C54.1497 113.142 53.8941 113.4 53.7141 113.736C53.5342 114.072 53.4442 114.472 53.4442 114.936H50.5252C50.5252 113.984 50.7406 113.158 51.1715 112.457C51.6024 111.757 52.2061 111.214 52.9826 110.831C53.7591 110.447 54.654 110.256 55.6673 110.256C56.7089 110.256 57.6156 110.44 58.3874 110.81C59.1639 111.174 59.7676 111.681 60.1985 112.33C60.6294 112.978 60.8448 113.722 60.8448 114.56C60.8448 115.109 60.7359 115.651 60.5181 116.186C60.305 116.721 59.9239 117.315 59.3746 117.969C58.8254 118.617 58.0513 119.396 57.0522 120.305L54.9286 122.386V122.486H61.0366V125H50.6673ZM68.5277 110.256C69.2758 110.256 69.9955 110.381 70.6868 110.632C71.3828 110.883 72.0031 111.283 72.5476 111.832C73.0968 112.382 73.5301 113.111 73.8473 114.02C74.1693 114.924 74.3326 116.035 74.3374 117.351C74.3374 118.587 74.1977 119.69 73.9183 120.661C73.6437 121.626 73.2483 122.448 72.7322 123.125C72.2161 123.802 71.5935 124.318 70.8643 124.673C70.1352 125.024 69.3208 125.199 68.4212 125.199C67.4505 125.199 66.5935 125.012 65.8501 124.638C65.1068 124.259 64.5078 123.745 64.0533 123.097C63.6035 122.443 63.3312 121.709 63.2365 120.895H66.2692C66.3875 121.425 66.6361 121.837 67.0149 122.131C67.3937 122.42 67.8625 122.564 68.4212 122.564C69.3681 122.564 70.0878 122.152 70.5803 121.328C71.0727 120.5 71.3213 119.366 71.326 117.926H71.2266C71.0088 118.352 70.7152 118.719 70.3459 119.027C69.9766 119.33 69.5528 119.564 69.0746 119.73C68.6011 119.896 68.0968 119.979 67.5618 119.979C66.7048 119.979 65.9401 119.777 65.2678 119.375C64.5954 118.973 64.0651 118.419 63.6768 117.713C63.2886 117.008 63.0945 116.203 63.0945 115.298C63.0897 114.323 63.3146 113.454 63.7692 112.692C64.2237 111.929 64.8582 111.333 65.6726 110.902C66.4917 110.466 67.4434 110.251 68.5277 110.256ZM68.549 112.67C68.0708 112.67 67.6446 112.784 67.2706 113.011C66.9013 113.239 66.6077 113.544 66.3899 113.928C66.1768 114.311 66.0727 114.74 66.0774 115.213C66.0774 115.691 66.1816 116.122 66.3899 116.506C66.603 116.884 66.8918 117.187 67.2564 117.415C67.6257 117.637 68.0471 117.749 68.5206 117.749C68.8757 117.749 69.2048 117.682 69.5078 117.55C69.8108 117.417 70.0736 117.235 70.2962 117.003C70.5234 116.766 70.701 116.494 70.8288 116.186C70.9567 115.878 71.0206 115.552 71.0206 115.206C71.0159 114.747 70.907 114.325 70.6939 113.942C70.4808 113.558 70.1873 113.25 69.8132 113.018C69.4392 112.786 69.0178 112.67 68.549 112.67ZM83.2933 116.527V118.928H76.6598V116.527H83.2933ZM91.1058 110.256C91.8539 110.256 92.5736 110.381 93.2649 110.632C93.9609 110.883 94.5812 111.283 95.1257 111.832C95.675 112.382 96.1082 113.111 96.4254 114.02C96.7474 114.924 96.9107 116.035 96.9155 117.351C96.9155 118.587 96.7758 119.69 96.4964 120.661C96.2218 121.626 95.8265 122.448 95.3104 123.125C94.7943 123.802 94.1716 124.318 93.4425 124.673C92.7133 125.024 91.8989 125.199 90.9993 125.199C90.0286 125.199 89.1716 125.012 88.4283 124.638C87.6849 124.259 87.0859 123.745 86.6314 123.097C86.1816 122.443 85.9093 121.709 85.8146 120.895H88.8473C88.9657 121.425 89.2143 121.837 89.593 122.131C89.9718 122.42 90.4406 122.564 90.9993 122.564C91.9463 122.564 92.666 122.152 93.1584 121.328C93.6508 120.5 93.8994 119.366 93.9041 117.926H93.8047C93.5869 118.352 93.2933 118.719 92.924 119.027C92.5547 119.33 92.1309 119.564 91.6527 119.73C91.1792 119.896 90.675 119.979 90.1399 119.979C89.2829 119.979 88.5182 119.777 87.8459 119.375C87.1735 118.973 86.6432 118.419 86.255 117.713C85.8667 117.008 85.6726 116.203 85.6726 115.298C85.6679 114.323 85.8928 113.454 86.3473 112.692C86.8018 111.929 87.4363 111.333 88.2507 110.902C89.0698 110.466 90.0215 110.251 91.1058 110.256ZM91.1271 112.67C90.6489 112.67 90.2228 112.784 89.8487 113.011C89.4794 113.239 89.1858 113.544 88.968 113.928C88.755 114.311 88.6508 114.74 88.6555 115.213C88.6555 115.691 88.7597 116.122 88.968 116.506C89.1811 116.884 89.4699 117.187 89.8345 117.415C90.2038 117.637 90.6252 117.749 91.0987 117.749C91.4538 117.749 91.7829 117.682 92.0859 117.55C92.389 117.417 92.6518 117.235 92.8743 117.003C93.1016 116.766 93.2791 116.494 93.407 116.186C93.5348 115.878 93.5987 115.552 93.5987 115.206C93.594 114.747 93.4851 114.325 93.272 113.942C93.0589 113.558 92.7654 113.25 92.3913 113.018C92.0173 112.786 91.5959 112.67 91.1271 112.67ZM104.749 125.32C103.528 125.315 102.477 125.014 101.596 124.418C100.72 123.821 100.045 122.957 99.5717 121.825C99.103 120.694 98.871 119.332 98.8757 117.741C98.8757 116.155 99.1101 114.804 99.5788 113.686C100.052 112.569 100.727 111.719 101.603 111.136C102.484 110.549 103.532 110.256 104.749 110.256C105.966 110.256 107.013 110.549 107.888 111.136C108.769 111.723 109.446 112.576 109.92 113.693C110.393 114.806 110.628 116.155 110.623 117.741C110.623 119.337 110.386 120.701 109.913 121.832C109.444 122.964 108.772 123.828 107.896 124.425C107.02 125.021 105.971 125.32 104.749 125.32ZM104.749 122.77C105.583 122.77 106.248 122.351 106.745 121.513C107.242 120.675 107.488 119.418 107.484 117.741C107.484 116.638 107.37 115.72 107.143 114.986C106.92 114.252 106.603 113.7 106.191 113.331C105.784 112.962 105.303 112.777 104.749 112.777C103.921 112.777 103.258 113.191 102.761 114.02C102.263 114.848 102.013 116.089 102.008 117.741C102.008 118.859 102.119 119.792 102.342 120.54C102.569 121.283 102.888 121.842 103.3 122.216C103.712 122.585 104.195 122.77 104.749 122.77ZM119.144 110.455V125H116.069V113.374H115.983L112.652 115.462V112.734L116.253 110.455H119.144ZM122.601 125V122.784L127.778 117.99C128.219 117.564 128.588 117.18 128.886 116.839C129.189 116.499 129.419 116.165 129.575 115.838C129.732 115.507 129.81 115.149 129.81 114.766C129.81 114.339 129.713 113.973 129.518 113.665C129.324 113.352 129.059 113.113 128.723 112.947C128.387 112.777 128.006 112.692 127.58 112.692C127.134 112.692 126.746 112.782 126.415 112.962C126.083 113.142 125.828 113.4 125.648 113.736C125.468 114.072 125.378 114.472 125.378 114.936H122.459C122.459 113.984 122.674 113.158 123.105 112.457C123.536 111.757 124.14 111.214 124.916 110.831C125.693 110.447 126.588 110.256 127.601 110.256C128.643 110.256 129.549 110.44 130.321 110.81C131.098 111.174 131.701 111.681 132.132 112.33C132.563 112.978 132.778 113.722 132.778 114.56C132.778 115.109 132.67 115.651 132.452 116.186C132.239 116.721 131.857 117.315 131.308 117.969C130.759 118.617 129.985 119.396 128.986 120.305L126.862 122.386V122.486H132.97V125H122.601ZM142.024 116.527V118.928H135.39V116.527H142.024ZM149.852 125.199C148.792 125.199 147.847 125.017 147.018 124.652C146.195 124.283 145.544 123.776 145.065 123.132C144.592 122.483 144.348 121.735 144.334 120.888H147.43C147.449 121.243 147.565 121.555 147.778 121.825C147.996 122.09 148.285 122.296 148.645 122.443C149.005 122.59 149.41 122.663 149.859 122.663C150.328 122.663 150.742 122.58 151.102 122.415C151.462 122.249 151.744 122.019 151.947 121.726C152.151 121.432 152.253 121.094 152.253 120.71C152.253 120.322 152.144 119.979 151.926 119.68C151.713 119.377 151.405 119.141 151.003 118.97C150.605 118.8 150.132 118.714 149.582 118.714H148.226V116.456H149.582C150.046 116.456 150.456 116.375 150.811 116.214C151.171 116.054 151.45 115.831 151.649 115.547C151.848 115.258 151.947 114.922 151.947 114.538C151.947 114.174 151.86 113.854 151.685 113.58C151.514 113.3 151.273 113.082 150.96 112.926C150.652 112.77 150.293 112.692 149.881 112.692C149.464 112.692 149.083 112.768 148.737 112.919C148.392 113.066 148.115 113.277 147.906 113.551C147.698 113.826 147.587 114.148 147.572 114.517H144.625C144.639 113.679 144.878 112.94 145.342 112.301C145.806 111.662 146.431 111.162 147.217 110.803C148.008 110.438 148.901 110.256 149.895 110.256C150.899 110.256 151.777 110.438 152.53 110.803C153.283 111.167 153.867 111.66 154.284 112.28C154.705 112.895 154.914 113.587 154.909 114.354C154.914 115.168 154.661 115.848 154.149 116.392C153.643 116.937 152.982 117.282 152.168 117.429V117.543C153.238 117.68 154.052 118.052 154.611 118.658C155.174 119.259 155.454 120.012 155.449 120.916C155.454 121.745 155.214 122.481 154.732 123.125C154.253 123.769 153.593 124.276 152.75 124.645C151.907 125.014 150.941 125.199 149.852 125.199ZM157.659 125V122.784L162.837 117.99C163.277 117.564 163.647 117.18 163.945 116.839C164.248 116.499 164.478 116.165 164.634 115.838C164.79 115.507 164.868 115.149 164.868 114.766C164.868 114.339 164.771 113.973 164.577 113.665C164.383 113.352 164.118 113.113 163.782 112.947C163.445 112.777 163.064 112.692 162.638 112.692C162.193 112.692 161.805 112.782 161.473 112.962C161.142 113.142 160.886 113.4 160.706 113.736C160.526 114.072 160.436 114.472 160.436 114.936H157.517C157.517 113.984 157.733 113.158 158.164 112.457C158.595 111.757 159.198 111.214 159.975 110.831C160.751 110.447 161.646 110.256 162.659 110.256C163.701 110.256 164.608 110.44 165.38 110.81C166.156 111.174 166.76 111.681 167.191 112.33C167.622 112.978 167.837 113.722 167.837 114.56C167.837 115.109 167.728 115.651 167.51 116.186C167.297 116.721 166.916 117.315 166.367 117.969C165.818 118.617 165.043 119.396 164.044 120.305L161.921 122.386V122.486H168.029V125H157.659ZM169.724 122.443V120.021L175.797 110.455H177.885V113.807H176.649L172.821 119.865V119.979H181.45V122.443H169.724ZM176.706 125V121.705L176.763 120.632V110.455H179.646V125H176.706ZM188.812 125.199C187.808 125.199 186.913 125.014 186.127 124.645C185.346 124.276 184.726 123.767 184.266 123.118C183.807 122.469 183.568 121.726 183.549 120.888H186.532C186.565 121.451 186.802 121.908 187.242 122.259C187.683 122.609 188.206 122.784 188.812 122.784C189.295 122.784 189.721 122.678 190.09 122.464C190.464 122.247 190.755 121.946 190.964 121.562C191.177 121.174 191.283 120.729 191.283 120.227C191.283 119.716 191.174 119.266 190.957 118.878C190.744 118.49 190.448 118.187 190.069 117.969C189.69 117.751 189.257 117.64 188.769 117.635C188.343 117.635 187.929 117.723 187.526 117.898C187.129 118.073 186.818 118.312 186.596 118.615L183.862 118.125L184.55 110.455H193.442V112.969H187.086L186.71 116.612H186.795C187.05 116.252 187.436 115.954 187.952 115.717C188.469 115.481 189.046 115.362 189.685 115.362C190.561 115.362 191.343 115.568 192.029 115.98C192.716 116.392 193.258 116.958 193.656 117.678C194.053 118.393 194.25 119.216 194.245 120.149C194.25 121.129 194.022 122 193.563 122.763C193.109 123.52 192.472 124.117 191.653 124.553C190.838 124.983 189.891 125.199 188.812 125.199ZM203.215 116.527V118.928H196.582V116.527H203.215ZM211.347 125.199C210.599 125.194 209.877 125.069 209.181 124.822C208.49 124.576 207.87 124.176 207.32 123.622C206.771 123.068 206.335 122.334 206.013 121.42C205.696 120.507 205.538 119.384 205.538 118.054C205.542 116.832 205.682 115.741 205.957 114.78C206.236 113.814 206.634 112.995 207.15 112.322C207.671 111.65 208.293 111.139 209.018 110.788C209.742 110.433 210.554 110.256 211.454 110.256C212.424 110.256 213.281 110.445 214.025 110.824C214.768 111.198 215.365 111.707 215.815 112.351C216.269 112.995 216.544 113.717 216.638 114.517H213.606C213.487 114.01 213.239 113.613 212.86 113.324C212.481 113.035 212.013 112.891 211.454 112.891C210.507 112.891 209.787 113.303 209.295 114.126C208.807 114.95 208.558 116.07 208.549 117.486H208.648C208.866 117.055 209.16 116.688 209.529 116.385C209.903 116.077 210.327 115.843 210.8 115.682C211.279 115.516 211.783 115.433 212.313 115.433C213.175 115.433 213.942 115.637 214.614 116.044C215.287 116.446 215.817 117 216.205 117.706C216.594 118.411 216.788 119.219 216.788 120.128C216.788 121.113 216.558 121.989 216.099 122.756C215.644 123.523 215.007 124.124 214.188 124.56C213.374 124.991 212.427 125.204 211.347 125.199ZM211.333 122.784C211.807 122.784 212.23 122.67 212.604 122.443C212.978 122.216 213.272 121.908 213.485 121.52C213.698 121.132 213.805 120.696 213.805 120.213C213.805 119.73 213.698 119.297 213.485 118.913C213.277 118.53 212.988 118.224 212.619 117.997C212.249 117.77 211.828 117.656 211.354 117.656C210.999 117.656 210.67 117.723 210.367 117.855C210.069 117.988 209.806 118.172 209.579 118.409C209.356 118.646 209.181 118.92 209.053 119.233C208.925 119.541 208.862 119.87 208.862 120.22C208.862 120.689 208.968 121.117 209.181 121.506C209.399 121.894 209.692 122.204 210.062 122.436C210.436 122.668 210.86 122.784 211.333 122.784ZM219.543 125L225.573 113.068V112.969H218.549V110.455H228.755V113.004L222.718 125H219.543ZM235.996 125.199C234.902 125.199 233.929 125.021 233.077 124.666C232.229 124.306 231.564 123.816 231.081 123.196C230.598 122.576 230.357 121.873 230.357 121.087C230.357 120.481 230.494 119.924 230.768 119.418C231.048 118.906 231.427 118.482 231.905 118.146C232.383 117.805 232.918 117.588 233.51 117.493V117.393C232.733 117.237 232.104 116.861 231.621 116.264C231.138 115.663 230.896 114.964 230.896 114.169C230.896 113.416 231.116 112.746 231.557 112.159C231.997 111.567 232.601 111.103 233.368 110.767C234.14 110.426 235.016 110.256 235.996 110.256C236.976 110.256 237.849 110.426 238.616 110.767C239.388 111.108 239.994 111.574 240.435 112.166C240.875 112.753 241.098 113.421 241.102 114.169C241.098 114.969 240.851 115.668 240.364 116.264C239.876 116.861 239.251 117.237 238.489 117.393V117.493C239.071 117.588 239.599 117.805 240.072 118.146C240.551 118.482 240.929 118.906 241.209 119.418C241.493 119.924 241.637 120.481 241.642 121.087C241.637 121.873 241.393 122.576 240.911 123.196C240.428 123.816 239.76 124.306 238.908 124.666C238.06 125.021 237.089 125.199 235.996 125.199ZM235.996 122.94C236.483 122.94 236.91 122.853 237.274 122.678C237.639 122.498 237.923 122.251 238.126 121.939C238.335 121.622 238.439 121.257 238.439 120.845C238.439 120.424 238.332 120.052 238.119 119.73C237.906 119.403 237.617 119.148 237.253 118.963C236.888 118.774 236.469 118.679 235.996 118.679C235.527 118.679 235.108 118.774 234.739 118.963C234.369 119.148 234.078 119.403 233.865 119.73C233.657 120.052 233.553 120.424 233.553 120.845C233.553 121.257 233.654 121.622 233.858 121.939C234.062 122.251 234.348 122.498 234.717 122.678C235.087 122.853 235.513 122.94 235.996 122.94ZM235.996 116.442C236.403 116.442 236.765 116.359 237.082 116.193C237.4 116.027 237.648 115.798 237.828 115.504C238.008 115.211 238.098 114.872 238.098 114.489C238.098 114.11 238.008 113.778 237.828 113.494C237.648 113.205 237.402 112.981 237.089 112.82C236.777 112.654 236.412 112.571 235.996 112.571C235.584 112.571 235.219 112.654 234.902 112.82C234.585 112.981 234.336 113.205 234.156 113.494C233.981 113.778 233.893 114.11 233.893 114.489C233.893 114.872 233.983 115.211 234.163 115.504C234.343 115.798 234.592 116.027 234.909 116.193C235.226 116.359 235.589 116.442 235.996 116.442ZM249.055 110.256C249.803 110.256 250.523 110.381 251.214 110.632C251.91 110.883 252.53 111.283 253.075 111.832C253.624 112.382 254.057 113.111 254.375 114.02C254.697 114.924 254.86 116.035 254.865 117.351C254.865 118.587 254.725 119.69 254.446 120.661C254.171 121.626 253.776 122.448 253.26 123.125C252.743 123.802 252.121 124.318 251.392 124.673C250.663 125.024 249.848 125.199 248.949 125.199C247.978 125.199 247.121 125.012 246.377 124.638C245.634 124.259 245.035 123.745 244.581 123.097C244.131 122.443 243.859 121.709 243.764 120.895H246.797C246.915 121.425 247.163 121.837 247.542 122.131C247.921 122.42 248.39 122.564 248.949 122.564C249.895 122.564 250.615 122.152 251.108 121.328C251.6 120.5 251.849 119.366 251.853 117.926H251.754C251.536 118.352 251.243 118.719 250.873 119.027C250.504 119.33 250.08 119.564 249.602 119.73C249.128 119.896 248.624 119.979 248.089 119.979C247.232 119.979 246.467 119.777 245.795 119.375C245.123 118.973 244.592 118.419 244.204 117.713C243.816 117.008 243.622 116.203 243.622 115.298C243.617 114.323 243.842 113.454 244.297 112.692C244.751 111.929 245.386 111.333 246.2 110.902C247.019 110.466 247.971 110.251 249.055 110.256ZM249.076 112.67C248.598 112.67 248.172 112.784 247.798 113.011C247.429 113.239 247.135 113.544 246.917 113.928C246.704 114.311 246.6 114.74 246.605 115.213C246.605 115.691 246.709 116.122 246.917 116.506C247.13 116.884 247.419 117.187 247.784 117.415C248.153 117.637 248.574 117.749 249.048 117.749C249.403 117.749 249.732 117.682 250.035 117.55C250.338 117.417 250.601 117.235 250.824 117.003C251.051 116.766 251.228 116.494 251.356 116.186C251.484 115.878 251.548 115.552 251.548 115.206C251.543 114.747 251.434 114.325 251.221 113.942C251.008 113.558 250.715 113.25 250.341 113.018C249.967 112.786 249.545 112.67 249.076 112.67Z" fill="white"/>
<path d="M66.5922 46.2221L66.1609 44.0659H61.3424L60.5757 46.2068L56.7137 46.2145C58.5523 41.793 60.3948 37.3732 62.2413 32.955C62.5557 32.2056 63.1134 31.8241 63.9357 31.828C64.5643 31.8337 65.5897 31.8337 67.0138 31.8299L70 46.2164L66.5922 46.2221ZM62.4272 41.1123H65.5322L64.3727 35.7073L62.4272 41.1123ZM37.5317 31.8261L41.4148 31.8299L35.4118 46.2241L31.4808 46.2202C30.4922 42.4182 29.516 38.6129 28.5521 34.8046C28.3604 34.0456 27.9809 33.5146 27.2507 33.2636C26.172 32.9021 25.0884 32.5558 24 32.2247L24 31.8318H30.2042C31.2776 31.8318 31.9043 32.3512 32.1056 33.4169C32.3088 34.4845 32.8186 37.2023 33.6389 41.5704L37.5317 31.8261ZM46.7508 31.8299L43.6803 46.2202L39.985 46.2164L43.0517 31.8261L46.7508 31.8299ZM54.245 31.5635C55.3509 31.5635 56.7443 31.9085 57.5455 32.2247L56.8977 35.209C56.1732 34.9176 54.981 34.5247 53.9786 34.5381C52.5219 34.5631 51.6211 35.1745 51.6211 35.761C51.6211 36.7155 53.1851 37.1966 54.7951 38.2392C56.6332 39.4276 56.8747 40.4951 56.8517 41.6547C56.8267 44.0621 54.7951 46.4368 50.5094 46.4368C48.5544 46.4081 47.8491 46.2432 46.2544 45.6778L46.9291 42.5632C48.5525 43.2436 49.2406 43.4602 50.6282 43.4602C51.899 43.4602 52.9896 42.9466 52.9992 42.0515C53.0068 41.4151 52.6158 41.0989 51.1898 40.3131C49.7638 39.5253 47.7628 38.4347 47.7897 36.2459C47.8222 33.4437 50.4768 31.5635 54.2469 31.5635H54.245Z" fill="white"/>
</g>
<defs>
<clipPath id="clip0_29361_4055">
<rect width="327" height="204" rx="18" fill="white"/>
</clipPath>
</defs>
</svg>
