<svg width="198" height="30" viewBox="0 0 198 30" fill="none" xmlns="http://www.w3.org/2000/svg">
<path d="M30 3.5942C28.8725 4.19507 27.6801 4.59228 26.46 4.77347C27.7473 3.8288 28.7119 2.34267 29.175 0.590742C27.9653 1.47531 26.6411 2.09855 25.26 2.43336C24.3368 1.20354 23.1075 0.384916 21.7647 0.105861C20.422 -0.173193 19.0418 0.10311 17.8407 0.891437C16.6396 1.67976 15.6854 2.93552 15.1279 4.46177C14.5703 5.98802 14.4409 7.69842 14.76 9.32473C12.3141 9.17276 9.92166 8.39044 7.73798 7.02858C5.5543 5.66672 3.62827 3.75579 2.085 1.41992C1.54371 2.58107 1.25928 3.89606 1.26 5.23413C1.25808 6.47675 1.50633 7.70068 1.98263 8.79694C2.45894 9.8932 3.14853 10.8278 3.99 11.5174C3.01197 11.4847 2.05483 11.1624 1.2 10.5777V10.6698C1.20733 12.4109 1.70399 14.0954 2.60597 15.4385C3.50795 16.7815 4.75988 17.7006 6.15 18.0403C5.61488 18.2403 5.05931 18.3458 4.5 18.3535C4.11284 18.348 3.72663 18.3048 3.345 18.2246C3.74086 19.7222 4.50693 21.0311 5.53661 21.969C6.56629 22.907 7.80836 23.4273 9.09 23.4576C6.9258 25.5494 4.25383 26.6911 1.5 26.7006C0.998603 26.7026 0.497603 26.6657 0 26.59C2.81164 28.8201 6.08822 30.0039 9.435 29.9988C11.7445 30.0283 14.0357 29.4922 16.1747 28.4217C18.3136 27.3513 20.2575 25.768 21.8928 23.7644C23.5281 21.7607 24.8219 19.3769 25.6988 16.7521C26.5757 14.1274 27.0181 11.3142 27 8.47713C27 8.16388 27 7.83221 27 7.50054C28.177 6.42226 29.1922 5.1004 30 3.5942Z" fill="#ADADAD"/>
<path d="M113.993 10.5729C114.06 7.797 113.634 5.04183 112.753 2.56326C112.155 1.54624 111.326 0.859913 110.409 0.623869C106.617 0.134222 102.81 -0.0664679 99.0026 0.0226585C95.2095 -0.0705131 91.4156 0.123701 87.637 0.604476C86.89 0.797865 86.1986 1.29653 85.6473 2.03962C84.4208 3.64932 84.2846 6.40325 84.1483 8.73052C83.9506 12.9149 83.9506 17.1134 84.1483 21.2978C84.1877 22.6076 84.3248 23.9079 84.5571 25.1765C84.7214 26.1561 85.0539 27.0623 85.5247 27.8141C86.0797 28.5966 86.7872 29.1236 87.5552 29.3268C90.4933 29.843 93.4536 30.0568 96.4133 29.9668C101.183 30.0638 105.367 29.9668 110.314 29.4238C111.101 29.2331 111.828 28.7054 112.399 27.9111C112.78 27.3679 113.065 26.703 113.23 25.9717C113.717 23.8434 113.957 21.616 113.939 19.3778C113.993 18.2917 113.993 11.7366 113.993 10.5729ZM95.9227 20.5414V8.53658L103.99 14.5681C101.728 16.3523 98.7436 18.3693 95.9227 20.5414Z" fill="#ADADAD"/>
<path d="M183 11.28C182.264 11.28 181.545 11.4982 180.933 11.9069C180.322 12.3157 179.845 12.8967 179.563 13.5764C179.282 14.2562 179.208 15.0041 179.351 15.7257C179.495 16.4473 179.849 17.1102 180.37 17.6304C180.89 18.1507 181.553 18.505 182.274 18.6485C182.996 18.7921 183.744 18.7184 184.424 18.4368C185.103 18.1553 185.684 17.6785 186.093 17.0667C186.502 16.455 186.72 15.7357 186.72 15C186.72 14.5115 186.624 14.0277 186.437 13.5764C186.25 13.1251 185.976 12.715 185.63 12.3696C185.285 12.0241 184.875 11.7501 184.424 11.5632C183.972 11.3762 183.489 11.28 183 11.28ZM197.895 7.605C197.887 6.44664 197.674 5.29886 197.265 4.215C196.964 3.42189 196.498 2.70164 195.898 2.10178C195.298 1.50192 194.578 1.03608 193.785 0.735C192.701 0.326196 191.553 0.112891 190.395 0.105C188.46 -1.00583e-07 187.89 0 183 0C178.11 0 177.54 -1.00583e-07 175.605 0.105C174.447 0.112891 173.299 0.326196 172.215 0.735C171.422 1.03608 170.702 1.50192 170.102 2.10178C169.502 2.70164 169.036 3.42189 168.735 4.215C168.326 5.29886 168.113 6.44664 168.105 7.605C168 9.54 168 10.11 168 15C168 19.89 168 20.46 168.105 22.395C168.121 23.5574 168.334 24.7087 168.735 25.8C169.035 26.5895 169.5 27.3056 170.1 27.9C170.697 28.5035 171.419 28.9693 172.215 29.265C173.299 29.6738 174.447 29.8871 175.605 29.895C177.54 30 178.11 30 183 30C187.89 30 188.46 30 190.395 29.895C191.553 29.8871 192.701 29.6738 193.785 29.265C194.581 28.9693 195.303 28.5035 195.9 27.9C196.5 27.3056 196.965 26.5895 197.265 25.8C197.673 24.7108 197.887 23.5582 197.895 22.395C198 20.46 198 19.89 198 15C198 10.11 198 9.54 197.895 7.605ZM194.085 19.605C194.037 20.5307 193.839 21.4424 193.5 22.305C193.209 23.0245 192.776 23.6782 192.227 24.227C191.678 24.7759 191.025 25.2088 190.305 25.5C189.434 25.8204 188.517 25.9977 187.59 26.025C186.405 26.025 186.09 26.025 183 26.025C179.91 26.025 179.595 26.025 178.41 26.025C177.483 25.9977 176.566 25.8204 175.695 25.5C174.951 25.2236 174.279 24.7826 173.73 24.21C173.187 23.6719 172.767 23.0218 172.5 22.305C172.178 21.4352 172.006 20.5173 171.99 19.59C171.99 18.405 171.99 18.09 171.99 15C171.99 11.91 171.99 11.595 171.99 10.41C172.006 9.48274 172.178 8.56483 172.5 7.695C172.776 6.95115 173.217 6.27942 173.79 5.73C174.331 5.18944 174.98 4.77014 175.695 4.5C176.566 4.17961 177.483 4.00231 178.41 3.975C179.595 3.975 179.91 3.975 183 3.975C186.09 3.975 186.405 3.975 187.59 3.975C188.517 4.00231 189.434 4.17961 190.305 4.5C191.049 4.77642 191.721 5.21741 192.27 5.79C192.814 6.32812 193.233 6.9782 193.5 7.695C193.82 8.56573 193.998 9.4826 194.025 10.41C194.025 11.595 194.025 11.91 194.025 15C194.025 18.09 194.13 18.405 194.085 19.59V19.605ZM191.685 8.445C191.506 7.96048 191.225 7.52046 190.86 7.15532C190.495 6.79018 190.055 6.50859 189.57 6.33C188.905 6.09939 188.204 5.98769 187.5 6C186.33 6 186 6 183 6C180 6 179.67 6 178.5 6C177.792 6.00692 177.092 6.13895 176.43 6.39C175.953 6.56048 175.518 6.83057 175.153 7.1823C174.788 7.53403 174.503 7.95936 174.315 8.43C174.097 9.09805 173.991 9.79739 174 10.5C174 11.67 174 12 174 15C174 18 174 18.33 174 19.5C174.015 20.2068 174.147 20.9062 174.39 21.57C174.569 22.0545 174.85 22.4945 175.215 22.8597C175.58 23.2248 176.02 23.5064 176.505 23.685C177.145 23.9204 177.818 24.052 178.5 24.075C179.67 24.075 180 24.075 183 24.075C186 24.075 186.33 24.075 187.5 24.075C188.208 24.0681 188.908 23.9361 189.57 23.685C190.055 23.5064 190.495 23.2248 190.86 22.8597C191.225 22.4945 191.506 22.0545 191.685 21.57C191.936 20.9084 192.068 20.2076 192.075 19.5C192.075 18.33 192.075 18 192.075 15C192.075 12 192.075 11.67 192.075 10.5C192.075 9.7917 191.943 9.08958 191.685 8.43V8.445ZM183 20.73C182.248 20.73 181.504 20.5817 180.809 20.2935C180.115 20.0054 179.484 19.5831 178.954 19.0508C178.423 18.5185 178.002 17.8868 177.716 17.1916C177.429 16.4965 177.283 15.7518 177.285 15C177.285 13.8661 177.621 12.7576 178.252 11.815C178.882 10.8724 179.778 10.138 180.826 9.70475C181.874 9.2715 183.026 9.15891 184.138 9.38122C185.25 9.60353 186.271 10.1508 187.072 10.9536C187.873 11.7565 188.417 12.7789 188.637 13.8914C188.856 15.0039 188.741 16.1564 188.305 17.2032C187.869 18.2499 187.132 19.1438 186.187 19.7716C185.243 20.3994 184.134 20.733 183 20.73ZM189 10.395C188.668 10.3599 188.362 10.2033 188.139 9.95546C187.916 9.70758 187.792 9.38594 187.792 9.0525C187.792 8.71906 187.916 8.39742 188.139 8.14954C188.362 7.90167 188.668 7.7451 189 7.71C189.332 7.7451 189.638 7.90167 189.861 8.14954C190.084 8.39742 190.208 8.71906 190.208 9.0525C190.208 9.38594 190.084 9.70758 189.861 9.95546C189.638 10.2033 189.332 10.3599 189 10.395Z" fill="#ADADAD"/>
</svg>
