<svg width="30" height="30" viewBox="0 0 30 30" fill="none" xmlns="http://www.w3.org/2000/svg">
<path d="M29.9931 10.5729C30.0605 7.797 29.6339 5.04183 28.753 2.56326C28.1553 1.54624 27.3258 0.859913 26.409 0.623869C22.6171 0.134222 18.8095 -0.0664679 15.0026 0.0226585C11.2095 -0.0705131 7.41558 0.123701 3.637 0.604476C2.88995 0.797865 2.19861 1.29653 1.64735 2.03962C0.420847 3.64932 0.284569 6.40325 0.148292 8.73052C-0.0494306 12.9149 -0.0494306 17.1134 0.148292 21.2978C0.187717 22.6076 0.324763 23.9079 0.557125 25.1765C0.721441 26.1561 1.05389 27.0623 1.5247 27.8141C2.07971 28.5966 2.78715 29.1236 3.55523 29.3268C6.49326 29.843 9.45362 30.0568 12.4133 29.9668C17.183 30.0638 21.3667 29.9668 26.3136 29.4238C27.1005 29.2331 27.8279 28.7054 28.3986 27.9111C28.7802 27.3679 29.0652 26.703 29.2299 25.9717C29.7173 23.8434 29.9567 21.616 29.9386 19.3778C29.9931 18.2917 29.9931 11.7366 29.9931 10.5729ZM11.9227 20.5414V8.53658L19.9903 14.5681C17.7281 16.3523 14.7436 18.3693 11.9227 20.5414Z" fill="#ADADAD"/>
</svg>
